<svg width="20" height="20" viewBox="0 0 20 20" fill="none" xmlns="http://www.w3.org/2000/svg">
<path d="M8.33398 4.2059C8.38667 3.87606 8.46532 3.58671 8.57372 3.33335C9.1413 2.00672 10.4173 1.66669 13.268 1.66669C17.5007 1.66669 18.334 3.33335 18.334 6.7451C18.334 9.16669 18.1482 11.0004 16.6673 11.4672C16.4173 11.546 16.1303 11.6098 15.801 11.6667" stroke="#B1B5C4" stroke-width="2" stroke-linecap="round" stroke-linejoin="round"/>
<path d="M7.49935 18.3334C11.666 18.3334 13.3327 17.0834 13.3327 12.5C13.3327 7.91669 11.666 6.66669 7.49935 6.66669C3.33268 6.66669 1.66602 7.63891 1.66602 12.5C1.66602 17.3611 3.33268 18.3334 7.49935 18.3334Z" stroke="#B1B5C4" stroke-width="2" stroke-linecap="round" stroke-linejoin="round"/>
<path d="M5.83333 7.5C5.83333 7.5 6.33714 9.49619 5.41667 10.4167C4.49619 11.3371 2.5 10.8333 2.5 10.8333" stroke="#B1B5C4" stroke-width="2" stroke-linecap="round" stroke-linejoin="round"/>
</svg>
